{
    "asset": {
        "version": "1.0",
        "generator": "Open Asset Import Library (assimp v4.1.0)"
    },
    "accessors": {
        "Plane_accessor": {
            "bufferView": "Plane_view",
            "byteOffset": 0,
            "byteStride": 0,
            "componentType": 5126,
            "count": 338,
            "type": "VEC3",
            "max": [
                1.7524282932281495,
                1.0534647703170777,
                0.11685825884342194
            ],
            "min": [
                -1.2560596466064454,
                -1.0552071332931519,
                -0.11744827032089234
            ]
        },
        "Plane_accessor_0": {
            "bufferView": "Plane_view_0",
            "byteOffset": 0,
            "byteStride": 0,
            "componentType": 5126,
            "count": 338,
            "type": "VEC3",
            "max": [
                0.9091233015060425,
                0.9905693531036377,
                0.9974820017814636
            ],
            "min": [
                -0.9950500130653381,
                -0.9905694127082825,
                -0.9999966621398926
            ]
        },
        "Plane_accessor_1": {
            "bufferView": "Plane_view_1",
            "byteOffset": 0,
            "byteStride": 0,
            "componentType": 5126,
            "count": 338,
            "type": "VEC2",
            "max": [
                1.0000001192092896,
                0.5
            ],
            "min": [
                0.0,
                -1.1920928955078126e-7
            ]
        },
        "Plane_accessor_2": {
            "bufferView": "Plane_view_2",
            "byteOffset": 0,
            "byteStride": 0,
            "componentType": 5123,
            "count": 1998,
            "type": "SCALAR",
            "max": [
                337.0
            ],
            "min": [
                0.0
            ]
        }
    },
    "buffers": {
        "../../download/m238z4o2tkr7/m238z4o2tkr7": {
            "byteLength": 14812,
            "type": "arraybuffer",
            "uri": "../../download/m238z4o2tkr7/m238z4o2tkr7.bin"
        }
    },
    "bufferViews": {
        "Plane_view": {
            "buffer": "../../download/m238z4o2tkr7/m238z4o2tkr7",
            "byteOffset": 0,
            "byteLength": 4056,
            "target": 34962
        },
        "Plane_view_0": {
            "buffer": "../../download/m238z4o2tkr7/m238z4o2tkr7",
            "byteOffset": 4056,
            "byteLength": 4056,
            "target": 34962
        },
        "Plane_view_1": {
            "buffer": "../../download/m238z4o2tkr7/m238z4o2tkr7",
            "byteOffset": 8112,
            "byteLength": 2704,
            "target": 34962
        },
        "Plane_view_2": {
            "buffer": "../../download/m238z4o2tkr7/m238z4o2tkr7",
            "byteOffset": 10816,
            "byteLength": 3996,
            "target": 34963
        }
    },
    "materials": {
        "Material.001": {
            "values": {
                "ambient": [
                    0.0,
                    0.0,
                    0.0,
                    1.0
                ],
                "diffuse": [
                    0.8000000715255737,
                    0.6334702968597412,
                    0.3366982042789459,
                    1.0
                ],
                "specular": [
                    0.20000001788139344,
                    0.1583675742149353,
                    0.08417455106973648,
                    1.0
                ],
                "emission": [
                    0.0,
                    0.0,
                    0.0,
                    1.0
                ],
                "shininess": 9.000000953674317
            }
        }
    },
    "meshes": {
        "Plane": {
            "name": "",
            "primitives": [
                {
                    "mode": 4,
                    "material": "Material.001",
                    "indices": "Plane_accessor_2",
                    "attributes": {
                        "POSITION": "Plane_accessor",
                        "NORMAL": "Plane_accessor_0",
                        "TEXCOORD_0": "Plane_accessor_1"
                    }
                }
            ]
        }
    },
    "nodes": {
        "RootNode": {
            "children": [
                "Arrow"
            ]
        },
        "Arrow": {
            "matrix": [
                100.0,
                0.0,
                0.0,
                0.0,
                0.0,
                -0.000016292067812173629,
                -100.0,
                0.0,
                0.0,
                100.0,
                -0.000016292067812173629,
                0.0,
                11.482990264892579,
                8.66330623626709,
                11.398099899291993,
                1.0
            ],
            "meshes": [
                "Plane"
            ]
        }
    },
    "scenes": {
        "defaultScene": {
            "nodes": [
                "RootNode"
            ]
        }
    },
    "scene": "defaultScene"
}